<svg xmlns="http://www.w3.org/2000/svg" width="512" height="320" viewBox="0 0 512 320">
  <rect width="512" height="320" rx="36" fill="#FFF8E1"/>
  <path d="M0 224 C92 188 168 230 256 204 C344 178 420 192 512 160 L512 320 L0 320 Z" fill="#FFCA28"/>
  <ellipse cx="258" cy="206" rx="156" ry="58" fill="#F8E2B4"/>
  <ellipse cx="258" cy="186" rx="120" ry="42" fill="#FFE082"/>
  <path d="M258 144 C248 164 236 168 236 182 C236 196 246 206 258 206 C270 206 280 196 280 182 C280 168 268 164 258 144 Z" fill="#FFFFFF"/>
  <rect x="252" y="206" width="12" height="18" rx="3" fill="#FFFFFF"/>
</svg>
